<mxfile host="app.diagrams.net" agent="Mozilla/5.0 (Windows NT 10.0; Win64; x64) AppleWebKit/537.36 (KHTML, like Gecko) Chrome/139.0.0.0 Safari/537.36" version="28.1.2">
  <diagram id="07fea595-8f29-1299-0266-81d95cde20df" name="Page-1">
    <mxGraphModel dx="564" dy="330" grid="1" gridSize="10" guides="1" tooltips="1" connect="1" arrows="1" fold="1" page="1" pageScale="1" pageWidth="1169" pageHeight="827" background="#ffffff" math="0" shadow="0">
      <root>
        <mxCell id="0" />
        <mxCell id="1" parent="0" />
        <mxCell id="170" value="&lt;font color=&quot;#23497d&quot;&gt;Portal Adm&lt;/font&gt;" style="swimlane;whiteSpace=wrap;fillColor=none;swimlaneFillColor=#BAC8D3;fontColor=#2F5B7C;fontFamily=Tahoma;html=1;strokeColor=none;opacity=50;" parent="1" vertex="1">
          <mxGeometry x="24.5" y="88.5" width="160" height="650" as="geometry">
            <mxRectangle x="20" y="20" width="80" height="23" as="alternateBounds" />
          </mxGeometry>
        </mxCell>
        <mxCell id="171" value="Gestão do Portal" style="whiteSpace=wrap;shadow=0;fontColor=#FFFFFF;fontFamily=Helvetica;fontStyle=0;html=1;fontSize=12;plain-purple;strokeColor=none;fillColor=#2f5b7c;gradientColor=none;spacing=6;verticalAlign=middle;" parent="170" vertex="1">
          <mxGeometry x="20" y="60" width="120" height="60" as="geometry" />
        </mxCell>
        <mxCell id="172" value="Credit Management" style="whiteSpace=wrap;strokeColor=none;fillColor=#2f5b7c;shadow=0;fontColor=#FFFFFF;fontFamily=Helvetica;fontStyle=0;html=1;fontSize=12;spacing=6;verticalAlign=middle;" parent="170" vertex="1">
          <mxGeometry x="20" y="375" width="120" height="60" as="geometry" />
        </mxCell>
        <mxCell id="173" value="Price Management" style="whiteSpace=wrap;strokeColor=none;fillColor=#2f5b7c;shadow=0;fontColor=#FFFFFF;fontFamily=Helvetica;fontStyle=0;html=1;fontSize=12;spacing=6;verticalAlign=middle;" parent="170" vertex="1">
          <mxGeometry x="20" y="485" width="120" height="60" as="geometry" />
        </mxCell>
        <mxCell id="174" value="" style="edgeStyle=segmentEdgeStyle;strokeColor=#2F5B7C;strokeWidth=3;html=1;endArrow=block;endFill=1;" parent="170" source="172" target="173" edge="1">
          <mxGeometry width="100" height="100" relative="1" as="geometry">
            <mxPoint x="170" y="397.5" as="sourcePoint" />
            <mxPoint x="270" y="472.5" as="targetPoint" />
          </mxGeometry>
        </mxCell>
        <mxCell id="175" value="" style="edgeStyle=segmentEdgeStyle;strokeColor=#2F5B7C;strokeWidth=3;html=1;endArrow=block;endFill=1;" parent="170" source="171" target="172" edge="1">
          <mxGeometry width="100" height="100" relative="1" as="geometry">
            <mxPoint x="160" y="110" as="sourcePoint" />
            <mxPoint x="260" y="185" as="targetPoint" />
          </mxGeometry>
        </mxCell>
        <mxCell id="176" value="&lt;font color=&quot;#23497d&quot;&gt;Empresa&lt;/font&gt;" style="swimlane;whiteSpace=wrap;fillColor=none;swimlaneFillColor=#BAC8D3;fontColor=#2F5B7C;fontFamily=Tahoma;html=1;strokeColor=none;opacity=25;" parent="1" vertex="1">
          <mxGeometry x="824.5" y="88.5" width="160" height="650" as="geometry">
            <mxRectangle x="20" y="20" width="80" height="23" as="alternateBounds" />
          </mxGeometry>
        </mxCell>
        <mxCell id="177" value="" style="shape=document;whiteSpace=wrap;verticalAlign=middle;strokeColor=none;fillColor=#12aab5;shadow=0;fontColor=#FFFFFF;fontFamily=Helvetica;fontStyle=0;html=1;fontSize=12;spacing=6;spacingBottom=22;" parent="176" vertex="1">
          <mxGeometry x="20" y="50" width="120" height="80" as="geometry" />
        </mxCell>
        <mxCell id="178" value="Bills" style="shape=document;whiteSpace=wrap;verticalAlign=middle;strokeColor=none;fillColor=#12aab5;shadow=0;fontColor=#FFFFFF;fontFamily=Helvetica;fontStyle=0;html=1;fontSize=12;spacing=6;spacingBottom=22;" parent="176" vertex="1">
          <mxGeometry x="20" y="530" width="120" height="80" as="geometry" />
        </mxCell>
        <mxCell id="179" value="Gestão Empresa" style="whiteSpace=wrap;strokeColor=none;fillColor=#2f5b7c;shadow=0;fontColor=#FFFFFF;fontFamily=Helvetica;fontStyle=0;html=1;fontSize=12;spacing=6;verticalAlign=middle;" parent="176" vertex="1">
          <mxGeometry x="20" y="161.5" width="120" height="60" as="geometry" />
        </mxCell>
        <mxCell id="180" value="&lt;font color=&quot;#23497d&quot;&gt;Candidatos&lt;/font&gt;" style="swimlane;whiteSpace=wrap;fillColor=none;swimlaneFillColor=#BAC8D3;fontColor=#2F5B7C;fontFamily=Tahoma;html=1;strokeColor=none;opacity=50;" parent="1" vertex="1">
          <mxGeometry x="664.5" y="88.5" width="160" height="650" as="geometry">
            <mxRectangle x="20" y="20" width="80" height="23" as="alternateBounds" />
          </mxGeometry>
        </mxCell>
        <mxCell id="181" value="Gestão Candidatos" style="whiteSpace=wrap;fillColor=#2f5b7c;strokeColor=none;shadow=0;fontColor=#FFFFFF;fontFamily=Helvetica;fontStyle=0;html=1;fontSize=12;spacing=6;verticalAlign=middle;" parent="180" vertex="1">
          <mxGeometry x="20" y="160" width="120" height="60" as="geometry" />
        </mxCell>
        <mxCell id="182" value="" style="whiteSpace=wrap;strokeColor=none;fillColor=#2f5b7c;shadow=0;fontColor=#FFFFFF;fontFamily=Helvetica;fontStyle=0;html=1;fontSize=12;spacing=6;verticalAlign=middle;" parent="180" vertex="1">
          <mxGeometry x="20" y="420" width="120" height="60" as="geometry" />
        </mxCell>
        <mxCell id="183" value="&lt;font color=&quot;#23497d&quot;&gt;Onboarding&lt;/font&gt;" style="swimlane;whiteSpace=wrap;fillColor=none;swimlaneFillColor=#BAC8D3;fontColor=#2F5B7C;fontFamily=Tahoma;html=1;strokeColor=none;opacity=25;" parent="1" vertex="1">
          <mxGeometry x="184.5" y="88.5" width="160" height="650" as="geometry">
            <mxRectangle x="20" y="20" width="80" height="23" as="alternateBounds" />
          </mxGeometry>
        </mxCell>
        <mxCell id="184" value="Gestão Usuário" style="whiteSpace=wrap;shadow=0;fontColor=#FFFFFF;fontFamily=Helvetica;fontStyle=0;html=1;fontSize=12;plain-purple;strokeColor=none;fillColor=#2f5b7c;gradientColor=none;spacing=6;verticalAlign=middle;" parent="183" vertex="1">
          <mxGeometry x="20" y="165" width="120" height="60" as="geometry" />
        </mxCell>
        <mxCell id="185" value="&lt;br&gt; " style="shape=document;whiteSpace=wrap;verticalAlign=middle;strokeColor=none;fillColor=#12aab5;shadow=0;fontColor=#FFFFFF;fontFamily=Helvetica;fontStyle=0;html=1;fontSize=12;spacing=6;spacingBottom=22;" parent="183" vertex="1">
          <mxGeometry x="20" y="265" width="120" height="80" as="geometry" />
        </mxCell>
        <mxCell id="186" value="" style="edgeStyle=segmentEdgeStyle;strokeColor=#2F5B7C;strokeWidth=3;html=1;endArrow=block;endFill=1;" parent="183" source="184" target="185" edge="1">
          <mxGeometry width="100" height="100" relative="1" as="geometry">
            <mxPoint x="-10" y="100" as="sourcePoint" />
            <mxPoint x="90" y="175" as="targetPoint" />
          </mxGeometry>
        </mxCell>
        <mxCell id="wU54cl0gw4je3JUdgSJN-221" style="edgeStyle=orthogonalEdgeStyle;rounded=1;orthogonalLoop=1;jettySize=auto;html=1;strokeWidth=3;curved=0;strokeColor=#12AAB5;entryX=0.5;entryY=0;entryDx=0;entryDy=0;" edge="1" parent="183" target="184">
          <mxGeometry relative="1" as="geometry">
            <mxPoint x="135.5" y="121.5" as="sourcePoint" />
            <Array as="points">
              <mxPoint x="136" y="132" />
              <mxPoint x="106" y="132" />
              <mxPoint x="106" y="165" />
            </Array>
          </mxGeometry>
        </mxCell>
        <mxCell id="wU54cl0gw4je3JUdgSJN-217" value="Guia do Usuário" style="shape=document;whiteSpace=wrap;verticalAlign=middle;strokeColor=none;fillColor=#12aab5;shadow=0;fontColor=#FFFFFF;fontFamily=Helvetica;fontStyle=0;html=1;fontSize=12;spacing=6;spacingBottom=22;" vertex="1" parent="183">
          <mxGeometry x="20" y="50" width="120" height="80" as="geometry" />
        </mxCell>
        <mxCell id="187" value="&lt;font color=&quot;#23497d&quot;&gt;Acessos&lt;/font&gt;" style="swimlane;whiteSpace=wrap;fillColor=none;swimlaneFillColor=#BAC8D3;fontColor=#2F5B7C;fontFamily=Tahoma;html=1;strokeColor=none;opacity=50;" parent="1" vertex="1">
          <mxGeometry x="344.5" y="88.5" width="160" height="650" as="geometry">
            <mxRectangle x="20" y="20" width="80" height="23" as="alternateBounds" />
          </mxGeometry>
        </mxCell>
        <mxCell id="188" value="Guia do Usuário" style="shape=document;whiteSpace=wrap;verticalAlign=middle;strokeColor=none;fillColor=#12aab5;shadow=0;fontColor=#FFFFFF;fontFamily=Helvetica;fontStyle=0;html=1;fontSize=12;spacing=6;spacingBottom=22;" parent="187" vertex="1">
          <mxGeometry x="20" y="50" width="120" height="80" as="geometry" />
        </mxCell>
        <mxCell id="189" value="" style="shape=document;whiteSpace=wrap;verticalAlign=middle;strokeColor=none;fillColor=#12aab5;shadow=0;fontColor=#FFFFFF;fontFamily=Helvetica;fontStyle=0;html=1;fontSize=12;spacing=6;spacingBottom=22;" parent="187" vertex="1">
          <mxGeometry x="20" y="225" width="120" height="80" as="geometry" />
        </mxCell>
        <mxCell id="190" value="" style="shape=document;whiteSpace=wrap;strokeColor=none;fillColor=#12aab5;shadow=0;fontColor=#FFFFFF;fontFamily=Helvetica;fontStyle=0;html=1;fontSize=12;verticalAlign=middle;spacing=6;spacingBottom=22;" parent="187" vertex="1">
          <mxGeometry x="20" y="400" width="120" height="80" as="geometry" />
        </mxCell>
        <mxCell id="191" value="" style="shape=document;whiteSpace=wrap;verticalAlign=middle;strokeColor=none;fillColor=#12aab5;shadow=0;fontColor=#FFFFFF;fontFamily=Helvetica;fontStyle=0;html=1;fontSize=12;spacing=6;spacingBottom=22;" parent="187" vertex="1">
          <mxGeometry x="20" y="520" width="120" height="80" as="geometry" />
        </mxCell>
        <mxCell id="192" value="" style="edgeStyle=segmentEdgeStyle;strokeColor=#12AAB5;strokeWidth=3;html=1;endArrow=block;endFill=1;" parent="187" source="190" target="191" edge="1">
          <mxGeometry width="100" height="100" relative="1" as="geometry">
            <mxPoint x="-80" y="375" as="sourcePoint" />
            <mxPoint x="60" y="490" as="targetPoint" />
            <Array as="points">
              <mxPoint x="53" y="501" />
              <mxPoint x="53" y="501" />
            </Array>
          </mxGeometry>
        </mxCell>
        <mxCell id="193" value="&lt;font color=&quot;#23497d&quot;&gt;Vagas&lt;/font&gt;" style="swimlane;whiteSpace=wrap;fillColor=none;swimlaneFillColor=#BAC8D3;fontColor=#2F5B7C;fontFamily=Tahoma;html=1;strokeColor=none;opacity=25;" parent="1" vertex="1">
          <mxGeometry x="504.5" y="88.5" width="160" height="650" as="geometry">
            <mxRectangle x="20" y="20" width="80" height="23" as="alternateBounds" />
          </mxGeometry>
        </mxCell>
        <mxCell id="194" value="Gestão Vagas" style="whiteSpace=wrap;strokeColor=none;fillColor=#2f5b7c;shadow=0;fontColor=#FFFFFF;fontFamily=Helvetica;fontStyle=0;html=1;fontSize=12;spacing=6;verticalAlign=middle;" parent="193" vertex="1">
          <mxGeometry x="20" y="160" width="120" height="60" as="geometry" />
        </mxCell>
        <mxCell id="195" value="" style="whiteSpace=wrap;strokeColor=none;fillColor=#2f5b7c;shadow=0;fontColor=#FFFFFF;fontFamily=Helvetica;fontStyle=0;html=1;fontSize=12;spacing=6;verticalAlign=middle;" parent="193" vertex="1">
          <mxGeometry x="20" y="315" width="120" height="60" as="geometry" />
        </mxCell>
        <mxCell id="196" value="" style="swimlane;whiteSpace=wrap;fillColor=none;swimlaneFillColor=#BAC8D3;fontColor=#2F5B7C;fontFamily=Tahoma;html=1;strokeColor=none;opacity=50;" parent="1" vertex="1">
          <mxGeometry x="984.5" y="88.5" width="160" height="650" as="geometry">
            <mxRectangle x="20" y="20" width="80" height="23" as="alternateBounds" />
          </mxGeometry>
        </mxCell>
        <mxCell id="197" value="" style="shape=document;whiteSpace=wrap;verticalAlign=middle;strokeColor=none;fillColor=#12aab5;shadow=0;fontColor=#FFFFFF;fontFamily=Helvetica;fontStyle=0;html=1;fontSize=12;spacing=6;spacingBottom=22;" parent="196" vertex="1">
          <mxGeometry x="20" y="130" width="120" height="80" as="geometry" />
        </mxCell>
        <mxCell id="198" value="" style="whiteSpace=wrap;strokeColor=none;fillColor=#2f5b7c;shadow=0;fontColor=#FFFFFF;fontFamily=Helvetica;fontStyle=0;html=1;fontSize=12;spacing=6;verticalAlign=middle;" parent="196" vertex="1">
          <mxGeometry x="20" y="255" width="120" height="60" as="geometry" />
        </mxCell>
        <mxCell id="199" value="Long Term Strategy" style="whiteSpace=wrap;strokeColor=none;fillColor=#2f5b7c;shadow=0;fontColor=#FFFFFF;fontFamily=Helvetica;fontStyle=0;html=1;fontSize=12;spacing=6;verticalAlign=middle;" parent="196" vertex="1">
          <mxGeometry x="20" y="400" width="120" height="60" as="geometry" />
        </mxCell>
        <mxCell id="200" value="" style="edgeStyle=segmentEdgeStyle;strokeColor=#2F5B7C;strokeWidth=3;html=1;endArrow=block;endFill=1;" parent="196" source="198" target="199" edge="1">
          <mxGeometry width="100" height="100" relative="1" as="geometry">
            <mxPoint x="30" y="570" as="sourcePoint" />
            <mxPoint x="130" y="470" as="targetPoint" />
          </mxGeometry>
        </mxCell>
        <mxCell id="201" value="" style="edgeStyle=segmentEdgeStyle;entryX=0.25;entryY=0;strokeColor=#12AAB5;strokeWidth=3;html=1;endArrow=block;endFill=1;" parent="196" source="197" target="198" edge="1">
          <mxGeometry width="100" height="100" relative="1" as="geometry">
            <mxPoint x="-120" y="260" as="sourcePoint" />
            <mxPoint x="-20" y="160" as="targetPoint" />
          </mxGeometry>
        </mxCell>
        <mxCell id="206" value="" style="edgeStyle=elbowEdgeStyle;elbow=vertical;strokeColor=#12AAB5;strokeWidth=3;html=1;endArrow=block;endFill=1;" parent="1" source="191" target="178" edge="1">
          <mxGeometry x="484.5" y="623.5" width="100" height="100" as="geometry">
            <mxPoint x="544.5" y="618.5" as="sourcePoint" />
            <mxPoint x="644.5" y="518.5" as="targetPoint" />
          </mxGeometry>
        </mxCell>
        <mxCell id="207" value="" style="edgeStyle=segmentEdgeStyle;strokeColor=#2F5B7C;strokeWidth=3;html=1;endArrow=block;endFill=1;" parent="1" source="184" target="189" edge="1">
          <mxGeometry x="324.5" y="283.5" width="100" height="100" as="geometry">
            <mxPoint x="454.5" y="298.5" as="sourcePoint" />
            <mxPoint x="554.5" y="198.5" as="targetPoint" />
            <Array as="points" />
          </mxGeometry>
        </mxCell>
        <mxCell id="210" value="" style="edgeStyle=segmentEdgeStyle;strokeColor=#12AAB5;strokeWidth=3;html=1;endArrow=block;endFill=1;" parent="1" source="189" target="195" edge="1">
          <mxGeometry x="404.5" y="393.5" width="100" height="100" as="geometry">
            <mxPoint x="524.5" y="488.5" as="sourcePoint" />
            <mxPoint x="624.5" y="388.5" as="targetPoint" />
            <Array as="points">
              <mxPoint x="404.5" y="438.5" />
            </Array>
          </mxGeometry>
        </mxCell>
        <mxCell id="217" value="" style="edgeStyle=segmentEdgeStyle;strokeColor=#12AAB5;strokeWidth=3;html=1;endArrow=block;endFill=1;" parent="1" source="177" target="197" edge="1">
          <mxGeometry x="964.5" y="178.5" width="100" height="100" as="geometry">
            <mxPoint x="854.5" y="348.5" as="sourcePoint" />
            <mxPoint x="954.5" y="248.5" as="targetPoint" />
          </mxGeometry>
        </mxCell>
        <mxCell id="wU54cl0gw4je3JUdgSJN-218" style="edgeStyle=orthogonalEdgeStyle;rounded=1;orthogonalLoop=1;jettySize=auto;html=1;entryX=0;entryY=0.5;entryDx=0;entryDy=0;curved=0;strokeWidth=3;strokeColor=#2F5B7C;" edge="1" parent="1" source="171" target="wU54cl0gw4je3JUdgSJN-217">
          <mxGeometry relative="1" as="geometry" />
        </mxCell>
        <mxCell id="wU54cl0gw4je3JUdgSJN-219" style="edgeStyle=orthogonalEdgeStyle;rounded=1;orthogonalLoop=1;jettySize=auto;html=1;strokeWidth=3;curved=0;strokeColor=#2F5B7C;" edge="1" parent="1" source="171" target="188">
          <mxGeometry relative="1" as="geometry">
            <Array as="points">
              <mxPoint x="105" y="120" />
              <mxPoint x="424" y="120" />
            </Array>
          </mxGeometry>
        </mxCell>
        <mxCell id="wU54cl0gw4je3JUdgSJN-220" style="edgeStyle=orthogonalEdgeStyle;rounded=1;orthogonalLoop=1;jettySize=auto;html=1;curved=0;strokeWidth=3;strokeColor=#2F5B7C;" edge="1" parent="1" source="171" target="184">
          <mxGeometry relative="1" as="geometry">
            <Array as="points">
              <mxPoint x="105" y="220" />
              <mxPoint x="265" y="220" />
            </Array>
          </mxGeometry>
        </mxCell>
        <mxCell id="wU54cl0gw4je3JUdgSJN-223" style="edgeStyle=orthogonalEdgeStyle;rounded=1;orthogonalLoop=1;jettySize=auto;html=1;curved=0;strokeColor=#12AAB5;strokeWidth=3;" edge="1" parent="1" source="188" target="184">
          <mxGeometry relative="1" as="geometry">
            <Array as="points">
              <mxPoint x="350" y="179" />
              <mxPoint x="350" y="283" />
            </Array>
          </mxGeometry>
        </mxCell>
      </root>
    </mxGraphModel>
  </diagram>
</mxfile>
